<svg width="613" height="136" viewBox="0 0 613 136" fill="none" xmlns="http://www.w3.org/2000/svg">
<g filter="url(#filter0_d_50232_274)">
<path d="M107.556 30.7055V73.4303C107.556 90.3877 93.3658 104.136 75.8637 104.136H72.6582L56.2888 119.985C55.6477 120.607 54.7608 121 53.7778 121C52.8695 121 52.0468 120.679 51.4164 120.141L51.1386 119.872L51.1279 119.861L34.8973 104.136H31.6811C14.1897 104.136 0 90.3877 0 73.4303V30.7055C0 13.7481 14.1897 0 31.6918 0H75.8637C93.3658 0 107.556 13.7481 107.556 30.7055Z" fill="#FFD666"/>
<path d="M23.981 59.1875C20.861 59.1875 19.0826 62.6322 20.8929 65.1194C27.9317 74.8081 39.5708 81.1251 52.7219 81.1251C65.8731 81.1251 77.5014 74.7977 84.5402 65.1194C86.3505 62.6322 84.5722 59.1875 81.4521 59.1875H23.981Z" fill="white"/>
<path d="M42.2546 44.5241H23.4277V35.3245C23.4277 30.246 27.6446 26.1249 32.8412 26.1249C38.0378 26.1249 42.2546 30.246 42.2546 35.3245V44.5241Z" fill="white"/>
<path d="M82.0162 44.5241H63.1893V35.3245C63.1893 30.246 67.4062 26.1249 72.6028 26.1249C77.7994 26.1249 82.0162 30.246 82.0162 35.3245V44.5241Z" fill="white"/>
<path d="M184.218 81.483C178.56 81.483 173.914 80.149 170.28 77.481C166.646 74.767 164.691 70.903 164.415 65.889H178.836C178.974 67.591 179.48 68.833 180.354 69.615C181.228 70.397 182.355 70.788 183.735 70.788C184.977 70.788 185.989 70.489 186.771 69.891C187.599 69.247 188.013 68.373 188.013 67.269C188.013 65.843 187.346 64.739 186.012 63.957C184.678 63.175 182.516 62.301 179.526 61.335C176.352 60.277 173.776 59.265 171.798 58.299C169.866 57.287 168.164 55.838 166.692 53.952C165.266 52.02 164.553 49.513 164.553 46.431C164.553 43.303 165.335 40.635 166.899 38.427C168.463 36.173 170.625 34.471 173.385 33.321C176.145 32.171 179.273 31.596 182.769 31.596C188.427 31.596 192.935 32.93 196.293 35.598C199.697 38.22 201.514 41.923 201.744 46.707H187.047C187.001 45.235 186.541 44.131 185.667 43.395C184.839 42.659 183.758 42.291 182.424 42.291C181.412 42.291 180.584 42.59 179.94 43.188C179.296 43.786 178.974 44.637 178.974 45.741C178.974 46.661 179.319 47.466 180.009 48.156C180.745 48.8 181.642 49.375 182.7 49.881C183.758 50.341 185.322 50.939 187.392 51.675C190.474 52.733 193.004 53.791 194.982 54.849C197.006 55.861 198.731 57.31 200.157 59.196C201.629 61.036 202.365 63.382 202.365 66.234C202.365 69.132 201.629 71.731 200.157 74.031C198.731 76.331 196.638 78.148 193.878 79.482C191.164 80.816 187.944 81.483 184.218 81.483ZM206.444 61.611C206.444 57.609 207.272 54.113 208.928 51.123C210.584 48.133 212.884 45.833 215.828 44.223C218.818 42.613 222.222 41.808 226.04 41.808C230.962 41.808 235.102 43.165 238.46 45.879C241.818 48.547 243.98 52.296 244.946 57.126H230.594C229.766 54.596 228.156 53.331 225.764 53.331C224.062 53.331 222.705 54.044 221.693 55.47C220.727 56.85 220.244 58.897 220.244 61.611C220.244 64.325 220.727 66.395 221.693 67.821C222.705 69.247 224.062 69.96 225.764 69.96C228.202 69.96 229.812 68.695 230.594 66.165H244.946C243.98 70.949 241.818 74.698 238.46 77.412C235.102 80.126 230.962 81.483 226.04 81.483C222.222 81.483 218.818 80.678 215.828 79.068C212.884 77.458 210.584 75.158 208.928 72.168C207.272 69.178 206.444 65.659 206.444 61.611ZM276.025 41.946C280.441 41.946 283.937 43.441 286.513 46.431C289.135 49.375 290.446 53.377 290.446 58.437V81H276.922V60.231C276.922 58.023 276.347 56.298 275.197 55.056C274.047 53.768 272.506 53.124 270.574 53.124C268.55 53.124 266.963 53.768 265.813 55.056C264.663 56.298 264.088 58.023 264.088 60.231V81H250.564V29.94H264.088V47.811C265.284 46.063 266.894 44.66 268.918 43.602C270.988 42.498 273.357 41.946 276.025 41.946ZM315.876 81.483C312.012 81.483 308.539 80.678 305.457 79.068C302.421 77.458 300.029 75.158 298.281 72.168C296.533 69.178 295.659 65.659 295.659 61.611C295.659 57.609 296.533 54.113 298.281 51.123C300.075 48.133 302.49 45.833 305.526 44.223C308.608 42.613 312.081 41.808 315.945 41.808C319.809 41.808 323.259 42.613 326.295 44.223C329.377 45.833 331.792 48.133 333.54 51.123C335.334 54.113 336.231 57.609 336.231 61.611C336.231 65.613 335.334 69.132 333.54 72.168C331.792 75.158 329.377 77.458 326.295 79.068C323.213 80.678 319.74 81.483 315.876 81.483ZM315.876 69.753C317.762 69.753 319.326 69.063 320.568 67.683C321.856 66.257 322.5 64.233 322.5 61.611C322.5 58.989 321.856 56.988 320.568 55.608C319.326 54.228 317.785 53.538 315.945 53.538C314.105 53.538 312.564 54.228 311.322 55.608C310.08 56.988 309.459 58.989 309.459 61.611C309.459 64.279 310.057 66.303 311.253 67.683C312.449 69.063 313.99 69.753 315.876 69.753ZM359.742 81.483C355.878 81.483 352.405 80.678 349.323 79.068C346.287 77.458 343.895 75.158 342.147 72.168C340.399 69.178 339.525 65.659 339.525 61.611C339.525 57.609 340.399 54.113 342.147 51.123C343.941 48.133 346.356 45.833 349.392 44.223C352.474 42.613 355.947 41.808 359.811 41.808C363.675 41.808 367.125 42.613 370.161 44.223C373.243 45.833 375.658 48.133 377.406 51.123C379.2 54.113 380.097 57.609 380.097 61.611C380.097 65.613 379.2 69.132 377.406 72.168C375.658 75.158 373.243 77.458 370.161 79.068C367.079 80.678 363.606 81.483 359.742 81.483ZM359.742 69.753C361.628 69.753 363.192 69.063 364.434 67.683C365.722 66.257 366.366 64.233 366.366 61.611C366.366 58.989 365.722 56.988 364.434 55.608C363.192 54.228 361.651 53.538 359.811 53.538C357.971 53.538 356.43 54.228 355.188 55.608C353.946 56.988 353.325 58.989 353.325 61.611C353.325 64.279 353.923 66.303 355.119 67.683C356.315 69.063 357.856 69.753 359.742 69.753ZM399.123 29.94V81H385.599V29.94H399.123Z" fill="#FFD666"/>
<path d="M463.571 32.355V81H450.047V61.473H433.556V81H420.032V32.355H433.556V50.64H450.047V32.355H463.571ZM508.294 61.197C508.294 62.255 508.225 63.313 508.087 64.371H482.488C482.626 66.487 483.201 68.074 484.213 69.132C485.271 70.144 486.605 70.65 488.215 70.65C490.469 70.65 492.079 69.638 493.045 67.614H507.466C506.868 70.282 505.695 72.674 503.947 74.79C502.245 76.86 500.083 78.493 497.461 79.689C494.839 80.885 491.941 81.483 488.767 81.483C484.949 81.483 481.545 80.678 478.555 79.068C475.611 77.458 473.288 75.158 471.586 72.168C469.93 69.178 469.102 65.659 469.102 61.611C469.102 57.563 469.93 54.067 471.586 51.123C473.242 48.133 475.542 45.833 478.486 44.223C481.476 42.613 484.903 41.808 488.767 41.808C492.585 41.808 495.966 42.59 498.91 44.154C501.854 45.718 504.154 47.972 505.81 50.916C507.466 53.814 508.294 57.241 508.294 61.197ZM494.494 57.816C494.494 56.16 493.942 54.872 492.838 53.952C491.734 52.986 490.354 52.503 488.698 52.503C487.042 52.503 485.685 52.963 484.627 53.883C483.569 54.757 482.879 56.068 482.557 57.816H494.494ZM527.353 29.94V81H513.829V29.94H527.353ZM548.578 47.673C549.636 45.879 551.131 44.453 553.063 43.395C554.995 42.337 557.272 41.808 559.894 41.808C562.976 41.808 565.759 42.613 568.243 44.223C570.773 45.833 572.751 48.133 574.177 51.123C575.649 54.113 576.385 57.609 576.385 61.611C576.385 65.613 575.649 69.132 574.177 72.168C572.751 75.158 570.773 77.458 568.243 79.068C565.759 80.678 562.976 81.483 559.894 81.483C557.272 81.483 554.995 80.954 553.063 79.896C551.177 78.838 549.682 77.412 548.578 75.618V99.492H535.054V42.291H548.578V47.673ZM562.654 61.611C562.654 59.081 561.964 57.126 560.584 55.746C559.25 54.32 557.594 53.607 555.616 53.607C553.638 53.607 551.959 54.32 550.579 55.746C549.245 57.172 548.578 59.127 548.578 61.611C548.578 64.141 549.245 66.119 550.579 67.545C551.959 68.971 553.638 69.684 555.616 69.684C557.594 69.684 559.25 68.971 560.584 67.545C561.964 66.073 562.654 64.095 562.654 61.611Z" fill="#FD0056"/>
</g>
<defs>
<filter id="filter0_d_50232_274" x="0" y="0" width="581.385" height="136" filterUnits="userSpaceOnUse" color-interpolation-filters="sRGB">
<feFlood flood-opacity="0" result="BackgroundImageFix"/>
<feColorMatrix in="SourceAlpha" type="matrix" values="0 0 0 0 0 0 0 0 0 0 0 0 0 0 0 0 0 0 127 0" result="hardAlpha"/>
<feOffset dx="3" dy="13"/>
<feGaussianBlur stdDeviation="1"/>
<feComposite in2="hardAlpha" operator="out"/>
<feColorMatrix type="matrix" values="0 0 0 0 0.00784314 0 0 0 0 0.00784314 0 0 0 0 0.00784314 0 0 0 0.25 0"/>
<feBlend mode="normal" in2="BackgroundImageFix" result="effect1_dropShadow_50232_274"/>
<feBlend mode="normal" in="SourceGraphic" in2="effect1_dropShadow_50232_274" result="shape"/>
</filter>
</defs>
</svg>
