<svg width="53" height="58" viewBox="0 0 53 58" fill="none" xmlns="http://www.w3.org/2000/svg">
<path d="M2.67626 12.4293C1.32357 15.4103 0.866869 18.7459 1.34337 22.1643C1.89323 26.251 3.73865 30.3106 6.67292 33.8882C9.60719 37.4658 13.5144 40.4201 17.957 42.4203C21.6692 44.0997 25.6485 45.0512 29.5707 45.1973L43.6844 56.7138L44.1353 41.4148C47.0094 39.5037 49.2024 36.9492 50.5357 33.9595C52.1399 30.3889 52.4752 26.3328 51.5041 22.2454C50.5329 18.1579 48.2937 14.2007 45.0372 10.8168C42.326 7.97878 38.9743 5.6323 35.255 3.9685L33.8474 3.33526C27.8624 0.955568 21.4248 0.452178 15.7672 1.92147C10.1096 3.39077 5.62965 6.72949 3.18503 11.2984L2.67626 12.4293Z" stroke="white" stroke-linecap="round" stroke-linejoin="round"/>
</svg>
