<svg width="322" height="71" viewBox="0 0 322 71" fill="none" xmlns="http://www.w3.org/2000/svg">
<path d="M7.9375 1.75H20.5938L37 50.5469L53.3594 1.75H66.0156L42.1094 70H31.8438L7.9375 1.75ZM0.625 1.75H13.5156L15.9062 52.3281V70H0.625V1.75ZM60.4375 1.75H73.375V70H58.0469V52.3281L60.4375 1.75ZM119.682 14.7344L102.057 70H85.7444L111.01 1.75H121.323L119.682 14.7344ZM134.307 70L116.635 14.7344L114.807 1.75H125.26L150.619 70H134.307ZM133.557 44.5938V56.4062H97.9788V44.5938H133.557ZM162.051 1.75H188.254C193.473 1.75 197.989 2.53125 201.801 4.09375C205.645 5.65625 208.598 7.96875 210.661 11.0312C212.723 14.0938 213.754 17.875 213.754 22.375C213.754 26.125 213.145 29.3125 211.926 31.9375C210.708 34.5625 208.989 36.7344 206.77 38.4531C204.583 40.1719 202.02 41.5625 199.083 42.625L194.114 45.3438H171.801L171.708 33.4844H188.301C190.583 33.4844 192.473 33.0781 193.973 32.2656C195.473 31.4531 196.598 30.3125 197.348 28.8438C198.129 27.3438 198.52 25.5938 198.52 23.5938C198.52 21.5312 198.129 19.75 197.348 18.25C196.567 16.75 195.411 15.6094 193.879 14.8281C192.379 14.0156 190.504 13.6094 188.254 13.6094H177.333V70H162.051V1.75ZM199.833 70L184.504 39.6719L200.629 39.625L216.192 69.2969V70H199.833ZM246.139 1.75V70H230.905V1.75H246.139ZM321.134 34.375V37.4219C321.134 42.6094 320.415 47.2656 318.978 51.3906C317.571 55.5156 315.556 59.0312 312.931 61.9375C310.337 64.8438 307.243 67.0781 303.649 68.6406C300.087 70.1719 296.134 70.9375 291.79 70.9375C287.446 70.9375 283.478 70.1719 279.884 68.6406C276.29 67.0781 273.165 64.8438 270.509 61.9375C267.884 59.0312 265.853 55.5156 264.415 51.3906C262.978 47.2656 262.259 42.6094 262.259 37.4219V34.375C262.259 29.1875 262.978 24.5312 264.415 20.4062C265.853 16.25 267.868 12.7188 270.462 9.8125C273.087 6.90625 276.196 4.6875 279.79 3.15625C283.384 1.59375 287.353 0.8125 291.696 0.8125C296.04 0.8125 300.009 1.59375 303.603 3.15625C307.196 4.6875 310.29 6.90625 312.884 9.8125C315.509 12.7188 317.54 16.25 318.978 20.4062C320.415 24.5312 321.134 29.1875 321.134 34.375ZM305.712 37.4219V34.2812C305.712 30.8125 305.399 27.75 304.774 25.0938C304.149 22.4062 303.243 20.1562 302.056 18.3438C300.868 16.5312 299.399 15.1719 297.649 14.2656C295.899 13.3281 293.915 12.8594 291.696 12.8594C289.384 12.8594 287.368 13.3281 285.649 14.2656C283.931 15.1719 282.478 16.5312 281.29 18.3438C280.134 20.1562 279.243 22.4062 278.618 25.0938C278.024 27.75 277.728 30.8125 277.728 34.2812V37.4219C277.728 40.8594 278.024 43.9219 278.618 46.6094C279.243 49.2656 280.149 51.5156 281.337 53.3594C282.524 55.2031 283.978 56.5938 285.696 57.5312C287.446 58.4688 289.478 58.9375 291.79 58.9375C294.009 58.9375 295.978 58.4688 297.696 57.5312C299.446 56.5938 300.915 55.2031 302.103 53.3594C303.29 51.5156 304.181 49.2656 304.774 46.6094C305.399 43.9219 305.712 40.8594 305.712 37.4219Z" fill="white"/>
<path d="M7.9375 1.75V-0.25H5.11781L6.04995 2.41116L7.9375 1.75ZM20.5938 1.75L22.4895 1.11263L22.0313 -0.25H20.5938V1.75ZM37 50.5469L35.1043 51.1842L37.0027 56.8307L38.8963 51.1826L37 50.5469ZM53.3594 1.75V-0.25H51.9205L51.4631 1.11427L53.3594 1.75ZM66.0156 1.75L67.9032 2.41116L68.8353 -0.25H66.0156V1.75ZM42.1094 70V72H43.528L43.9969 70.6612L42.1094 70ZM31.8438 70L29.9562 70.6612L30.4252 72H31.8438V70ZM0.625 1.75V-0.25H-1.375V1.75H0.625ZM13.5156 1.75L15.5134 1.65557L15.4233 -0.25H13.5156V1.75ZM15.9062 52.3281H17.9062V52.2809L17.904 52.2337L15.9062 52.3281ZM15.9062 70V72H17.9062V70H15.9062ZM0.625 70H-1.375V72H0.625V70ZM60.4375 1.75V-0.25H58.5298L58.4397 1.65557L60.4375 1.75ZM73.375 1.75H75.375V-0.25H73.375V1.75ZM73.375 70V72H75.375V70H73.375ZM58.0469 70H56.0469V72H58.0469V70ZM58.0469 52.3281L56.0491 52.2337L56.0469 52.2809V52.3281H58.0469ZM7.9375 3.75H20.5938V-0.25H7.9375V3.75ZM18.698 2.38737L35.1043 51.1842L38.8957 49.9095L22.4895 1.11263L18.698 2.38737ZM38.8963 51.1826L55.2556 2.38573L51.4631 1.11427L35.1037 49.9111L38.8963 51.1826ZM53.3594 3.75H66.0156V-0.25H53.3594V3.75ZM64.1281 1.08884L40.2218 69.3388L43.9969 70.6612L67.9032 2.41116L64.1281 1.08884ZM42.1094 68H31.8438V72H42.1094V68ZM33.7313 69.3388L9.82505 1.08884L6.04995 2.41116L29.9562 70.6612L33.7313 69.3388ZM0.625 3.75H13.5156V-0.25H0.625V3.75ZM11.5179 1.84443L13.9085 52.4226L17.904 52.2337L15.5134 1.65557L11.5179 1.84443ZM13.9062 52.3281V70H17.9062V52.3281H13.9062ZM15.9062 68H0.625V72H15.9062V68ZM2.625 70V1.75H-1.375V70H2.625ZM60.4375 3.75H73.375V-0.25H60.4375V3.75ZM71.375 1.75V70H75.375V1.75H71.375ZM73.375 68H58.0469V72H73.375V68ZM60.0469 70V52.3281H56.0469V70H60.0469ZM60.0446 52.4226L62.4353 1.84443L58.4397 1.65557L56.0491 52.2337L60.0446 52.4226ZM119.682 14.7344L121.587 15.342L121.643 15.1672L121.666 14.9851L119.682 14.7344ZM102.057 70V72H103.518L103.962 70.6077L102.057 70ZM85.7444 70L83.8688 69.3057L82.8713 72H85.7444V70ZM111.01 1.75V-0.25H109.618L109.134 1.05566L111.01 1.75ZM121.323 1.75L123.307 2.00071L123.591 -0.25H121.323V1.75ZM134.307 70L132.402 70.6091L132.847 72H134.307V70ZM116.635 14.7344L114.655 15.0132L114.678 15.1816L114.73 15.3435L116.635 14.7344ZM114.807 1.75V-0.25H112.506L112.826 2.02884L114.807 1.75ZM125.26 1.75L127.135 1.0534L126.65 -0.25H125.26V1.75ZM150.619 70V72H153.496L152.494 69.3034L150.619 70ZM133.557 44.5938H135.557V42.5938H133.557V44.5938ZM133.557 56.4062V58.4062H135.557V56.4062H133.557ZM97.9788 56.4062H95.9788V58.4062H97.9788V56.4062ZM97.9788 44.5938V42.5938H95.9788V44.5938H97.9788ZM117.776 14.1267L100.151 69.3923L103.962 70.6077L121.587 15.342L117.776 14.1267ZM102.057 68H85.7444V72H102.057V68ZM87.62 70.6943L112.886 2.44434L109.134 1.05566L83.8688 69.3057L87.62 70.6943ZM111.01 3.75H121.323V-0.25H111.01V3.75ZM119.338 1.49929L117.698 14.4837L121.666 14.9851L123.307 2.00071L119.338 1.49929ZM136.212 69.3909L118.54 14.1252L114.73 15.3435L132.402 70.6091L136.212 69.3909ZM118.615 14.4555L116.787 1.47116L112.826 2.02884L114.655 15.0132L118.615 14.4555ZM114.807 3.75H125.26V-0.25H114.807V3.75ZM123.385 2.4466L148.745 70.6966L152.494 69.3034L127.135 1.0534L123.385 2.4466ZM150.619 68H134.307V72H150.619V68ZM131.557 44.5938V56.4062H135.557V44.5938H131.557ZM133.557 54.4062H97.9788V58.4062H133.557V54.4062ZM99.9788 56.4062V44.5938H95.9788V56.4062H99.9788ZM97.9788 46.5938H133.557V42.5938H97.9788V46.5938ZM162.051 1.75V-0.25H160.051V1.75H162.051ZM201.801 4.09375L201.043 5.94437L201.048 5.94652L201.801 4.09375ZM206.77 38.4531L205.545 36.872L205.534 36.8805L206.77 38.4531ZM199.083 42.625L198.402 40.7442L198.257 40.7966L198.122 40.8705L199.083 42.625ZM194.114 45.3438V47.3438H194.625L195.074 47.0983L194.114 45.3438ZM171.801 45.3438L169.801 45.3596L169.817 47.3438H171.801V45.3438ZM171.708 33.4844V31.4844H169.692L169.708 33.5002L171.708 33.4844ZM197.348 28.8438L195.574 27.9199L195.571 27.927L195.567 27.9342L197.348 28.8438ZM193.879 14.8281L192.927 16.5867L192.948 16.5984L192.97 16.6096L193.879 14.8281ZM177.333 13.6094V11.6094H175.333V13.6094H177.333ZM177.333 70V72H179.333V70H177.333ZM162.051 70H160.051V72H162.051V70ZM199.833 70L198.048 70.9021L198.602 72H199.833V70ZM184.504 39.6719L184.499 37.6719L181.257 37.6813L182.719 40.574L184.504 39.6719ZM200.629 39.625L202.401 38.696L201.837 37.6215L200.624 37.625L200.629 39.625ZM216.192 69.2969H218.192V68.8042L217.963 68.3679L216.192 69.2969ZM216.192 70V72H218.192V70H216.192ZM162.051 3.75H188.254V-0.25H162.051V3.75ZM188.254 3.75C193.28 3.75 197.526 4.50297 201.043 5.94436L202.56 2.24314C198.452 0.559525 193.667 -0.25 188.254 -0.25V3.75ZM201.048 5.94652C204.571 7.3785 207.188 9.4556 209.002 12.1485L212.32 9.91405C210.008 6.4819 206.719 3.934 202.554 2.24098L201.048 5.94652ZM209.002 12.1485C210.797 14.8146 211.754 18.185 211.754 22.375H215.754C215.754 17.565 214.649 13.3729 212.32 9.91405L209.002 12.1485ZM211.754 22.375C211.754 25.9167 211.178 28.8 210.112 31.0953L213.74 32.7797C215.112 29.825 215.754 26.3333 215.754 22.375H211.754ZM210.112 31.0953C209.024 33.4398 207.503 35.3552 205.545 36.872L207.995 40.0342C210.474 38.1136 212.391 35.6852 213.74 32.7797L210.112 31.0953ZM205.534 36.8805C203.534 38.4525 201.164 39.7454 198.402 40.7442L199.763 44.5058C202.876 43.3796 205.631 41.8912 208.006 40.0258L205.534 36.8805ZM198.122 40.8705L193.154 43.5892L195.074 47.0983L200.043 44.3795L198.122 40.8705ZM194.114 43.3438H171.801V47.3438H194.114V43.3438ZM173.801 45.3279L173.707 33.4686L169.708 33.5002L169.801 45.3596L173.801 45.3279ZM171.708 35.4844H188.301V31.4844H171.708V35.4844ZM188.301 35.4844C190.807 35.4844 193.051 35.0396 194.926 34.0242L193.021 30.507C191.895 31.1167 190.358 31.4844 188.301 31.4844V35.4844ZM194.926 34.0242C196.768 33.0261 198.189 31.5953 199.129 29.7533L195.567 27.9342C195.008 29.0297 194.178 29.8802 193.021 30.507L194.926 34.0242ZM199.122 29.7676C200.077 27.9346 200.52 25.8569 200.52 23.5938H196.52C196.52 25.3306 196.182 26.7529 195.574 27.9199L199.122 29.7676ZM200.52 23.5938C200.52 21.2793 200.081 19.1674 199.122 17.3261L195.574 19.1739C196.178 20.3326 196.52 21.7832 196.52 23.5938H200.52ZM199.122 17.3261C198.145 15.4508 196.684 14.0135 194.788 13.0466L192.97 16.6096C194.138 17.2052 194.989 18.0492 195.574 19.1739L199.122 17.3261ZM194.832 13.0695C192.961 12.0561 190.735 11.6094 188.254 11.6094V15.6094C190.274 15.6094 191.798 15.9752 192.927 16.5867L194.832 13.0695ZM188.254 11.6094H177.333V15.6094H188.254V11.6094ZM175.333 13.6094V70H179.333V13.6094H175.333ZM177.333 68H162.051V72H177.333V68ZM164.051 70V1.75H160.051V70H164.051ZM201.617 69.0979L186.289 38.7697L182.719 40.574L198.048 70.9021L201.617 69.0979ZM184.51 41.6719L200.635 41.625L200.624 37.625L184.499 37.6719L184.51 41.6719ZM198.858 40.554L214.421 70.2258L217.963 68.3679L202.401 38.696L198.858 40.554ZM214.192 69.2969V70H218.192V69.2969H214.192ZM216.192 68H199.833V72H216.192V68ZM246.139 1.75H248.139V-0.25H246.139V1.75ZM246.139 70V72H248.139V70H246.139ZM230.905 70H228.905V72H230.905V70ZM230.905 1.75V-0.25H228.905V1.75H230.905ZM244.139 1.75V70H248.139V1.75H244.139ZM246.139 68H230.905V72H246.139V68ZM232.905 70V1.75H228.905V70H232.905ZM230.905 3.75H246.139V-0.25H230.905V3.75ZM318.978 51.3906L317.089 50.7325L317.084 50.7453L318.978 51.3906ZM312.931 61.9375L311.446 60.5969L311.438 60.6058L312.931 61.9375ZM303.649 68.6406L304.439 70.4781L304.447 70.4748L303.649 68.6406ZM279.884 68.6406L279.086 70.4748L279.093 70.4777L279.1 70.4806L279.884 68.6406ZM270.509 61.9375L269.025 63.2781L269.032 63.2868L270.509 61.9375ZM264.415 20.4062L266.304 21.0644L266.305 21.06L264.415 20.4062ZM270.462 9.8125L268.978 8.4719L268.97 8.48079L270.462 9.8125ZM279.79 3.15625L280.574 4.99619L280.581 4.99332L280.587 4.99039L279.79 3.15625ZM303.603 3.15625L302.805 4.99039L302.812 4.99332L302.819 4.99619L303.603 3.15625ZM312.884 9.8125L311.392 11.1442L311.4 11.1531L312.884 9.8125ZM318.978 20.4062L317.087 21.06L317.089 21.0644L318.978 20.4062ZM304.774 25.0938L302.826 25.5468L302.828 25.5518L304.774 25.0938ZM297.649 14.2656L296.705 16.0286L296.717 16.0352L296.73 16.0416L297.649 14.2656ZM285.649 14.2656L286.582 16.0348L286.595 16.0282L286.607 16.0214L285.649 14.2656ZM281.29 18.3438L279.617 17.2477L279.61 17.2579L279.604 17.2681L281.29 18.3438ZM278.618 25.0938L276.67 24.6407L276.668 24.6491L276.666 24.6575L278.618 25.0938ZM278.618 46.6094L276.665 47.0408L276.668 47.0542L276.671 47.0675L278.618 46.6094ZM285.696 57.5312L284.739 59.287L284.745 59.2907L284.752 59.2942L285.696 57.5312ZM297.696 57.5312L296.752 55.7683L296.745 55.7718L296.739 55.7755L297.696 57.5312ZM304.774 46.6094L302.826 46.1563L302.824 46.1647L302.823 46.1731L304.774 46.6094ZM319.134 34.375V37.4219H323.134V34.375H319.134ZM319.134 37.4219C319.134 42.4262 318.44 46.8545 317.089 50.7325L320.866 52.0488C322.39 47.6767 323.134 42.7925 323.134 37.4219H319.134ZM317.084 50.7453C315.756 54.6423 313.87 57.9139 311.446 60.5969L314.415 63.2781C317.241 60.1486 319.387 56.389 320.871 52.036L317.084 50.7453ZM311.438 60.6058C309.038 63.295 306.182 65.3586 302.852 66.8065L304.447 70.4748C308.304 68.7977 311.635 66.3925 314.423 63.2692L311.438 60.6058ZM302.86 66.8032C299.575 68.215 295.895 68.9375 291.79 68.9375V72.9375C296.373 72.9375 300.599 72.1288 304.439 70.4781L302.86 66.8032ZM291.79 68.9375C287.685 68.9375 283.987 68.2151 280.668 66.8007L279.1 70.4806C282.968 72.1287 287.207 72.9375 291.79 72.9375V68.9375ZM280.681 66.8065C277.347 65.3566 274.453 63.2879 271.985 60.5882L269.032 63.2868C271.877 66.3996 275.233 68.7996 279.086 70.4748L280.681 66.8065ZM271.993 60.5969C269.567 57.9106 267.663 54.6344 266.304 50.7325L262.526 52.0488C264.042 56.3968 266.201 60.1519 269.025 63.2781L271.993 60.5969ZM266.304 50.7325C264.952 46.8545 264.259 42.4262 264.259 37.4219H260.259C260.259 42.7925 261.003 47.6767 262.526 52.0488L266.304 50.7325ZM264.259 37.4219V34.375H260.259V37.4219H264.259ZM264.259 34.375C264.259 29.3707 264.952 24.9423 266.304 21.0644L262.526 19.7481C261.003 24.1202 260.259 29.0043 260.259 34.375H264.259ZM266.305 21.06C267.667 17.1217 269.558 13.8291 271.954 11.1442L268.97 8.48079C266.178 11.6084 264.038 15.3783 262.525 19.7525L266.305 21.06ZM271.946 11.1531C274.377 8.46153 277.248 6.41344 280.574 4.99619L279.006 1.31631C275.145 2.96156 271.797 5.35097 268.978 8.47193L271.946 11.1531ZM280.587 4.99039C283.904 3.54861 287.597 2.8125 291.696 2.8125V-1.1875C287.108 -1.1875 282.864 -0.361112 278.993 1.32211L280.587 4.99039ZM291.696 2.8125C295.796 2.8125 299.489 3.54861 302.805 4.99039L304.4 1.32211C300.529 -0.361112 296.285 -1.1875 291.696 -1.1875V2.8125ZM302.819 4.99619C306.143 6.4125 308.994 8.45802 311.392 11.1442L314.376 8.48079C311.586 5.35448 308.25 2.9625 304.386 1.31631L302.819 4.99619ZM311.4 11.1531C313.824 13.8368 315.727 17.1264 317.087 21.06L320.868 19.7525C319.353 15.3736 317.194 11.6007 314.368 8.47193L311.4 11.1531ZM317.089 21.0644C318.44 24.9423 319.134 29.3707 319.134 34.375H323.134C323.134 29.0043 322.39 24.1202 320.866 19.7481L317.089 21.0644ZM307.712 37.4219V34.2812H303.712V37.4219H307.712ZM307.712 34.2812C307.712 30.6977 307.39 27.4761 306.721 24.6357L302.828 25.5518C303.409 28.0239 303.712 30.9273 303.712 34.2812H307.712ZM306.722 24.6407C306.058 21.7841 305.075 19.3022 303.729 17.2477L300.383 19.4398C301.412 21.0103 302.241 23.0284 302.826 25.5468L306.722 24.6407ZM303.729 17.2477C302.372 15.1769 300.654 13.5694 298.569 12.4896L296.73 16.0416C298.145 16.7744 299.364 17.8856 300.383 19.4398L303.729 17.2477ZM298.594 12.5027C296.521 11.392 294.205 10.8594 291.696 10.8594V14.8594C293.625 14.8594 295.278 15.2643 296.705 16.0286L298.594 12.5027ZM291.696 10.8594C289.11 10.8594 286.753 11.3853 284.692 12.5098L286.607 16.0214C287.983 15.2709 289.658 14.8594 291.696 14.8594V10.8594ZM284.717 12.4965C282.665 13.5784 280.968 15.1851 279.617 17.2477L282.963 19.4398C283.987 17.8774 285.197 16.7654 286.582 16.0348L284.717 12.4965ZM279.604 17.2681C278.297 19.3173 277.333 21.7918 276.67 24.6407L280.566 25.5468C281.154 23.0207 281.971 20.9952 282.976 19.4194L279.604 17.2681ZM276.666 24.6575C276.033 27.4897 275.728 30.7036 275.728 34.2812H279.728C279.728 30.9214 280.016 28.0103 280.57 25.53L276.666 24.6575ZM275.728 34.2812V37.4219H279.728V34.2812H275.728ZM275.728 37.4219C275.728 40.9703 276.034 44.1818 276.665 47.0408L280.571 46.1779C280.015 43.662 279.728 40.7485 279.728 37.4219H275.728ZM276.671 47.0675C277.336 49.8935 278.319 52.3666 279.655 54.4423L283.018 52.2764C281.98 50.6646 281.15 48.6377 280.565 46.1513L276.671 47.0675ZM279.655 54.4423C281.002 56.533 282.692 58.1708 284.739 59.287L286.654 55.7755C285.263 55.0167 284.047 53.8733 283.018 52.2764L279.655 54.4423ZM284.752 59.2942C286.837 60.4112 289.202 60.9375 291.79 60.9375V56.9375C289.753 56.9375 288.056 56.5263 286.641 55.7683L284.752 59.2942ZM291.79 60.9375C294.298 60.9375 296.604 60.4051 298.654 59.287L296.739 55.7755C295.351 56.5324 293.719 56.9375 291.79 56.9375V60.9375ZM298.641 59.2942C300.721 58.18 302.432 56.5411 303.784 54.4423L300.421 52.2764C299.398 53.8652 298.172 55.0075 296.752 55.7683L298.641 59.2942ZM303.784 54.4423C305.126 52.3594 306.093 49.8784 306.726 47.0457L302.823 46.1731C302.268 48.6529 301.455 50.6719 300.421 52.2764L303.784 54.4423ZM306.722 47.0624C307.389 44.1953 307.712 40.9763 307.712 37.4219H303.712C303.712 40.7424 303.41 43.6484 302.826 46.1563L306.722 47.0624Z" fill="white"/>
</svg>
